<svg width="79" height="89" viewBox="0 0 79 89" fill="none" xmlns="http://www.w3.org/2000/svg">
<g style="mix-blend-mode:multiply">
<path d="M30.0368 79.5024L54.2097 79.6749C56.4007 79.6906 58.1689 81.192 58.1501 83.0209L58.1081 87.1211L25.9864 86.8918L26.0284 82.7916C26.0471 80.9627 27.8458 79.4867 30.0368 79.5024V79.5024Z" stroke="#CFB3B3" stroke-width="2.5" stroke-miterlimit="10" stroke-linecap="round"/>
<path d="M47.1741 60.7078C64.6627 58.3042 76.5057 44.5214 73.6262 29.9231C70.7466 15.3248 54.235 5.43912 36.7463 7.84277C19.2577 10.2464 7.41472 24.0292 10.2943 38.6275C13.1738 53.2257 29.6855 63.1114 47.1741 60.7078Z" stroke="#CFB3B3" stroke-width="2.5" stroke-miterlimit="10"/>
<path d="M49.8934 60.2302L34.0357 8.32067L32.0077 2C10.6366 6.55123 -2.26559 24.6966 3.18675 42.5357C8.63908 60.3748 30.3771 71.1446 51.7482 66.5934L49.8118 60.2557" stroke="#CFB3B3" stroke-width="2.5" stroke-linecap="round" stroke-linejoin="round"/>
<path d="M16.3335 18.1625C22.7438 20.5955 30.1529 21.2931 37.511 19.7278C44.8691 18.1625 50.9737 14.5896 55.203 9.88522C48.7927 7.45223 41.3837 6.75466 34.0256 8.31994C26.6675 9.88522 20.5629 13.4581 16.3335 18.1625V18.1625Z" stroke="#CFB3B3" stroke-width="2.5" stroke-miterlimit="10"/>
<path d="M28.7155 58.6732C35.1258 61.1062 42.5348 61.8038 49.8929 60.2385C57.251 58.6732 63.3556 55.1003 67.585 50.396C61.1747 47.963 53.7656 47.2654 46.4075 48.8307C39.0494 50.396 32.9448 53.9689 28.7155 58.6732Z" stroke="#CFB3B3" stroke-width="2.5" stroke-miterlimit="10"/>
<path d="M49.8999 60.2298C58.4843 58.402 61.8919 45.2988 57.5111 30.963C53.1303 16.6272 42.6199 6.48748 34.0355 8.31531C25.4512 10.1431 22.0436 23.2463 26.4244 37.5821C30.8052 51.9179 41.3156 62.0576 49.8999 60.2298Z" stroke="#CFB3B3" stroke-width="2.5" stroke-miterlimit="10"/>
<path d="M10.8712 40.9021L73.0584 27.6567" stroke="#CFB3B3" stroke-width="2.5" stroke-miterlimit="10"/>
<path d="M41.9647 67.6396V79.4984" stroke="#CFB3B3" stroke-width="2.5" stroke-miterlimit="10"/>
<path d="M22.0304 87.2052H63.0605" stroke="#CFB3B3" stroke-width="2.5" stroke-miterlimit="10" stroke-linecap="round"/>
</g>
</svg>
