<svg width="90" height="81" viewBox="0 0 90 81" fill="none" xmlns="http://www.w3.org/2000/svg">
<g style="mix-blend-mode:multiply">
<path d="M45.2263 57.6505C69.2376 57.6505 88.7026 49.8838 88.7026 40.303C88.7026 30.7223 69.2376 22.9556 45.2263 22.9556C21.215 22.9556 1.75 30.7223 1.75 40.303C1.75 49.8838 21.215 57.6505 45.2263 57.6505Z" stroke="#CFB3B3" stroke-width="2.5" stroke-linecap="round" stroke-linejoin="round"/>
<path d="M62.822 49.3134C75.307 32.0417 77.55 14.0018 67.8319 9.02015C58.1137 4.03849 40.1144 14.0015 27.6293 31.2732C15.1442 48.5449 12.9012 66.5848 22.6194 71.5665C32.3376 76.5481 50.3369 66.5851 62.822 49.3134Z" stroke="#CFB3B3" stroke-width="2.5" stroke-linecap="round" stroke-linejoin="round"/>
<path d="M67.8359 71.5794C77.5541 66.5978 75.3111 48.5579 62.826 31.2862C50.3409 14.0145 32.3416 4.05146 22.6234 9.03312C12.9053 14.0148 15.1483 32.0547 27.6333 49.3264C40.1184 66.5981 58.1177 76.5611 67.8359 71.5794Z" stroke="#CFB3B3" stroke-width="2.5" stroke-linecap="round" stroke-linejoin="round"/>
<path d="M45.2261 44.8965C48.2383 44.8965 50.6803 42.8401 50.6803 40.3035C50.6803 37.7668 48.2383 35.7104 45.2261 35.7104C42.2138 35.7104 39.7719 37.7668 39.7719 40.3035C39.7719 42.8401 42.2138 44.8965 45.2261 44.8965Z" stroke="#CFB3B3" stroke-width="2.5" stroke-linecap="round" stroke-linejoin="round"/>
</g>
</svg>
