<svg width="102" height="102" viewBox="0 0 102 102" fill="none" xmlns="http://www.w3.org/2000/svg">
<g style="mix-blend-mode:multiply">
<path d="M72.7152 68.0621L52.741 74.3997C50.6354 75.0697 48.1598 74.0437 47.2193 72.1169C46.2788 70.1901 47.2307 68.0801 49.3363 67.4101L69.3105 61.0725C71.4161 60.4026 73.8917 61.4285 74.8322 63.3554C75.7728 65.2822 74.8208 67.3922 72.7152 68.0621V68.0621Z" stroke="#CFB3B3" stroke-width="2" stroke-miterlimit="10"/>
<path d="M75.7941 74.6544L55.8199 80.992C53.7143 81.6619 51.2387 80.636 50.2982 78.7092C49.3576 76.7823 50.3096 74.6724 52.4152 74.0024L72.3894 67.6648C74.495 66.9949 76.9706 68.0208 77.9111 69.9476C78.8516 71.8745 77.8997 73.9845 75.7941 74.6544V74.6544Z" stroke="#CFB3B3" stroke-width="2" stroke-miterlimit="10"/>
<path d="M34.2227 55.3511C34.2841 55.3814 34.3412 55.4214 34.4026 55.4517C35.7031 56.2009 43.8324 61.0496 49.8727 68.5999L70.5658 61.929C68.3752 53.1378 70.0171 45.1391 70.304 43.8782C70.322 43.8223 70.3284 43.7618 70.3464 43.7059C70.4928 43.0996 70.6045 42.4794 70.6888 41.8596C71.1694 38.1828 70.5401 34.2629 68.6288 30.4725C63.0072 19.3238 48.4529 13.5001 36.1179 17.4765C23.783 21.4529 18.355 33.71 23.9802 44.8658C25.8915 48.6562 28.8386 51.829 32.3744 54.2111C32.9763 54.6179 33.5912 54.9955 34.2227 55.3511V55.3511Z" stroke="#CFB3B3" stroke-width="2" stroke-miterlimit="10"/>
<path d="M56.6829 80.2747C59.4695 83.4431 64.2724 84.8802 68.4436 83.5257C72.6147 82.1713 74.7808 78.5486 74.1417 74.7605L56.6748 80.2773L56.6829 80.2747Z" stroke="#CFB3B3" stroke-width="2" stroke-miterlimit="10"/>
<path d="M55.4166 66.0937L47.0572 49.424C46.2344 47.7833 44.1079 46.9285 42.3037 47.5133C40.4996 48.0981 39.7051 49.8997 40.5279 51.5404C41.3506 53.1811 43.4772 54.0359 45.2813 53.4511L52.5448 51.0966" stroke="#CFB3B3" stroke-width="2" stroke-miterlimit="10"/>
<path d="M64.0224 63.133L55.6629 46.4632C54.8401 44.8225 55.6346 43.0209 57.4388 42.4361C59.2429 41.8513 61.3695 42.706 62.1922 44.3467C63.015 45.9874 62.2205 47.789 60.4164 48.3739L53.1529 50.7283" stroke="#CFB3B3" stroke-width="2" stroke-miterlimit="10"/>
<path d="M77.7158 31.7478L84.2107 29.5427" stroke="#CFB3B3" stroke-width="2" stroke-miterlimit="10" stroke-linecap="round"/>
<path d="M74.7578 24.7037L79.113 20.2639" stroke="#CFB3B3" stroke-width="2" stroke-miterlimit="10" stroke-linecap="round"/>
<path d="M78.801 38.7622L85.7768 39.537" stroke="#CFB3B3" stroke-width="2" stroke-miterlimit="10" stroke-linecap="round"/>
<path d="M17.3916 52.229L10.8967 54.4341" stroke="#CFB3B3" stroke-width="2" stroke-miterlimit="10" stroke-linecap="round"/>
<path d="M13.8112 45.4873L6.82715 44.7151" stroke="#CFB3B3" stroke-width="2" stroke-miterlimit="10" stroke-linecap="round"/>
<path d="M22.3713 58.0122L18.0161 62.452" stroke="#CFB3B3" stroke-width="2" stroke-miterlimit="10" stroke-linecap="round"/>
</g>
</svg>
