<svg width="134" height="117" viewBox="0 0 134 117" fill="none" xmlns="http://www.w3.org/2000/svg">
<g style="mix-blend-mode:multiply">
<path d="M94.7176 68.0938L129.216 91.8308C132.864 94.335 133.402 98.8524 130.428 101.924C127.454 104.997 122.09 105.449 118.442 102.945L83.9431 79.2078C80.295 76.7036 79.7578 72.1862 82.7315 69.1141C85.7051 66.0421 91.0696 65.5897 94.7176 68.0938V68.0938Z" stroke="#CFB3B3" stroke-width="2" stroke-miterlimit="10" stroke-linecap="round"/>
<path d="M77.5801 37.9281C75.388 20.9995 57.3144 8.77263 37.2117 10.6186C17.109 12.4646 2.58963 27.6845 4.78177 44.6131C6.9739 61.5417 25.0474 73.7685 45.1502 71.9225C65.2529 70.0765 79.7723 54.8567 77.5801 37.9281Z" stroke="#CFB3B3" stroke-width="2" stroke-miterlimit="10" stroke-linecap="round"/>
<path d="M57.7179 23.935C69.0981 31.6217 70.9114 45.6242 61.7677 55.209C52.624 64.7938 36.01 66.306 24.6298 58.6193C13.2653 50.9312 11.4521 36.9287 20.5801 27.3454C29.708 17.762 46.3377 16.2483 57.7179 23.935Z" stroke="#CFB3B3" stroke-width="2" stroke-miterlimit="10" stroke-linecap="round"/>
<path d="M69.7154 60.586L81.0433 68.2373" stroke="#CFB3B3" stroke-width="2" stroke-miterlimit="10" stroke-linecap="round"/>
</g>
</svg>
